<svg width="152" height="12" viewBox="0 0 152 12" fill="none" xmlns="http://www.w3.org/2000/svg">
<path fill-rule="evenodd" clip-rule="evenodd" d="M76 11C72.134 11 69 8.76142 69 6C69 3.23858 72.134 1 76 1C79.866 1 83 3.23858 83 6C83 8.76142 79.866 11 76 11ZM76 9C78.7614 9 81 7.65685 81 6C81 4.34315 78.7614 3 76 3C73.2386 3 71 4.34315 71 6C71 7.65685 73.2386 9 76 9Z" fill="white"/>
<path fill-rule="evenodd" clip-rule="evenodd" d="M53.6762 7L67 12C65.4662 9.99599 64.6993 7.99456 64.6993 5.99572C64.6993 3.99687 65.4662 1.9983 67 0L53.6571 5H0V7H53.6762Z" fill="white"/>
<path fill-rule="evenodd" clip-rule="evenodd" d="M98.3238 7L85 12C86.5338 9.99599 87.3007 7.99456 87.3007 5.99572C87.3007 3.99687 86.5338 1.9983 85 0L98.3429 5H152V7H98.3238Z" fill="white"/>
</svg>
